<?xml version="1.0" encoding="UTF-8"?>
<svg version="1.1" xmlns="http://www.w3.org/2000/svg" width="500" height="500">
<path d="M0 0 C165 0 330 0 500 0 C500 165 500 330 500 500 C335 500 170 500 0 500 C0 335 0 170 0 0 Z " fill="#FEFEFE" transform="translate(0,0)"/>
<path d="M0 0 C0.99 0.33 1.98 0.66 3 1 C3.7734375 3.15234375 3.7734375 3.15234375 4.375 5.9375 C7.01984896 16.44872962 11.33136453 24.97277663 20.80078125 30.69140625 C31.84170046 36.51349198 41.17474118 37.28974769 53.5625 37.125 C55.50479492 37.11146484 55.50479492 37.11146484 57.48632812 37.09765625 C60.65774771 37.07425094 63.82877373 37.04146228 67 37 C67 37.99 67 38.98 67 40 C66.09378906 40.29132813 65.18757813 40.58265625 64.25390625 40.8828125 C54.16707469 44.27711138 45.20855897 47.96936876 39 57 C36.43280957 62.50112236 36.00040051 68.51584685 37.67578125 74.35546875 C38.38764913 76.26165525 39.18620365 78.13505003 40 80 C50.07291099 72.94882135 50.07291099 72.94882135 55.8125 62.625 C55.9053125 61.325625 55.9053125 61.325625 56 60 C52.7 59.34 49.4 58.68 46 58 C46 57.34 46 56.68 46 56 C49.4967549 54.93985915 52.7933341 54.8005549 56.4375 54.75 C58.10619141 54.71132813 58.10619141 54.71132813 59.80859375 54.671875 C63.35039378 55.0360258 65.2075001 55.81835945 68 58 C68.73044966 61.65224832 68.25195138 63.50705164 66.5625 66.8125 C60.10204506 75.43394336 52.06111834 81.37321416 43 87 C44.07955259 88.73152958 45.16382512 90.46011684 46.25 92.1875 C46.85328125 93.15042969 47.4565625 94.11335938 48.078125 95.10546875 C49.95139797 98.04265178 49.95139797 98.04265178 52.25 100.6875 C54 103 54 103 53.75 105.8125 C53.37875 106.8953125 53.37875 106.8953125 53 108 C48.0721145 106.2653843 43.72935425 103.64380099 39.25 101 C38.47011719 100.54882812 37.69023438 100.09765625 36.88671875 99.6328125 C35.77490234 98.97925781 35.77490234 98.97925781 34.640625 98.3125 C33.96547852 97.91675781 33.29033203 97.52101563 32.59472656 97.11328125 C31 96 31 96 30 94 C25.14912424 95.90073659 25.14912424 95.90073659 22.1953125 99.8828125 C21.71232332 102.24691746 21.35634263 104.61358421 21 107 C20.55247555 109.00731726 20.07287224 111.00773474 19.5625 113 C19.33691406 113.928125 19.11132812 114.85625 18.87890625 115.8125 C18.44384766 116.8953125 18.44384766 116.8953125 18 118 C17.01 118.33 16.02 118.66 15 119 C14.17434317 112.03526265 13.50458349 104.67971628 16 98 C20.29531957 93.29159649 26.68129228 91.27054015 32.49804688 89.01660156 C36.15327454 87.53139782 39.502601 85.66173318 42.875 83.625 C43.4728833 83.26801025 44.0707666 82.91102051 44.68676758 82.54321289 C51.73116196 78.16634721 62.18794157 71.08245724 65 63 C64.70194993 60.80252869 64.70194993 60.80252869 64 59 C62.02 58.67 60.04 58.34 58 58 C58.33 58.33 58.66 58.66 59 59 C59.42769763 62.67819962 59.19003232 64.64273924 57.4375 67.9375 C41.35691478 88.1413122 12.27526224 100.77100174 -13 104 C-13 103.01 -13 102.02 -13 101 C-9.04 100.01 -5.08 99.02 -1 98 C-10.59316181 84.83291516 -21.41183342 77.75505138 -36.10424805 71.31054688 C-37.42162964 70.72563477 -37.42162964 70.72563477 -38.765625 70.12890625 C-39.95333496 69.61952515 -39.95333496 69.61952515 -41.16503906 69.09985352 C-43 68 -43 68 -44 65 C-42.73285156 65.02320313 -41.46570312 65.04640625 -40.16015625 65.0703125 C-38.46094345 65.08908833 -36.7617242 65.10728657 -35.0625 65.125 C-34.23169922 65.14175781 -33.40089844 65.15851563 -32.54492188 65.17578125 C-23.2177381 65.24836634 -15.45416058 63.84473954 -8 58 C-2.32378207 52.17037077 -0.63137055 45.57978133 0.0625 37.75 C0.74086818 30.38869772 0.74086818 30.38869772 3 27 C2.83296108 25.03720054 2.83296108 25.03720054 2.1875 22.875 C0.45268926 15.35375603 0.33876909 7.68470944 0 0 Z " fill="#8B916E" transform="translate(74,223)"/>
<path d="M0 0 C3.63 0 7.26 0 11 0 C11 18.48 11 36.96 11 56 C7.7 56 4.4 56 1 56 C1 55.01 1 54.02 1 53 C0.01 53.66 -0.98 54.32 -2 55 C-6.05820726 57.29092346 -9.41326014 57.89387253 -14 57 C-19.65968088 54.84886113 -23.43097089 51.20627689 -26.078125 45.796875 C-28.11227884 39.62545911 -28.2391988 31.56336134 -26.08984375 25.3828125 C-23.00469283 20.12515981 -18.80110554 16.93370185 -13 15 C-11.52313889 14.90752619 -10.04224499 14.87000929 -8.5625 14.875 C-7.80066406 14.87242187 -7.03882813 14.86984375 -6.25390625 14.8671875 C-4 15 -4 15 0 16 C0 10.72 0 5.44 0 0 Z " fill="#0D0F55" transform="translate(272,263)"/>
<path d="M0 0 C2.05078125 0.03255208 4.1015625 0.06510417 6.15234375 0.09765625 C9.3203522 6.23984225 12.0672274 12.48278674 14.69921875 18.87109375 C15.11528381 19.87604889 15.53134888 20.88100403 15.96002197 21.91641235 C16.83208511 24.02520727 17.70264754 26.13462334 18.57177734 28.24462891 C19.90760416 31.4854183 21.25039209 34.72326373 22.59375 37.9609375 C23.44182514 40.01414994 24.28949593 42.06752946 25.13671875 44.12109375 C25.53977234 45.09186859 25.94282593 46.06264343 26.35809326 47.06283569 C26.90931854 48.40530869 26.90931854 48.40530869 27.47167969 49.77490234 C27.9598819 50.95782364 27.9598819 50.95782364 28.45794678 52.16464233 C29.15234375 54.09765625 29.15234375 54.09765625 29.15234375 56.09765625 C25.19234375 56.09765625 21.23234375 56.09765625 17.15234375 56.09765625 C13.15234375 47.34765625 13.15234375 47.34765625 13.15234375 45.09765625 C5.89234375 45.42765625 -1.36765625 45.75765625 -8.84765625 46.09765625 C-10.82765625 51.04765625 -10.82765625 51.04765625 -12.84765625 56.09765625 C-16.80765625 56.09765625 -20.76765625 56.09765625 -24.84765625 56.09765625 C-20.67620371 44.72523253 -16.22422876 33.48431625 -11.61401367 22.28295898 C-10.51562897 19.61268362 -9.42267342 16.94022684 -8.33007812 14.26757812 C-7.63182809 12.56627584 -6.93327245 10.86509893 -6.234375 9.1640625 C-5.90837814 8.36633926 -5.58238129 7.56861603 -5.24650574 6.74671936 C-2.51708857 0.13303851 -2.51708857 0.13303851 0 0 Z " fill="#0D0D56" transform="translate(170.84765625,262.90234375)"/>
<path d="M0 0 C5.53503722 3.73293208 8.65527883 7.39495947 10.6875 13.8125 C10.6875 16.7825 10.6875 19.7525 10.6875 22.8125 C1.7775 22.8125 -7.1325 22.8125 -16.3125 22.8125 C-13.97401858 28.72981018 -13.97401858 28.72981018 -10.3125 30.8125 C-8.12061492 30.95056634 -8.12061492 30.95056634 -5.8125 30.625 C-5.0390625 30.54894531 -4.265625 30.47289062 -3.46875 30.39453125 C-0.94524443 29.71336761 -0.0786358 28.6742386 1.6875 26.8125 C5.1096787 26.90024817 6.43269151 27.58523837 9 29.875 C9.556875 30.514375 10.11375 31.15375 10.6875 31.8125 C7.34619894 36.36881963 4.39553371 39.55673258 -1.3125 40.8125 C-8.61881867 41.62766779 -15.36541262 41.53437725 -21.3125 36.8125 C-27.27748696 30.38522656 -27.63037812 24.50573309 -27.515625 15.9375 C-27.11850288 9.82792889 -24.6694728 6.98054317 -20.3125 3 C-14.38073839 -2.08918183 -7.29780064 -2.61619268 0 0 Z " fill="#0B0B55" transform="translate(453.3125,279.1875)"/>
<path d="M0 0 C5.40042794 3.80484695 9.40276844 8.33606534 10.75 14.9375 C10.75 17.5775 10.75 20.2175 10.75 22.9375 C1.84 22.9375 -7.07 22.9375 -16.25 22.9375 C-14.23848737 29.71239892 -14.23848737 29.71239892 -11.25 30.9375 C-5.43254208 31.54338901 -5.43254208 31.54338901 -0.5 28.875 C0.2425 28.235625 0.985 27.59625 1.75 26.9375 C5.22490935 27.04609092 7.87294295 29.09938022 10.75 30.9375 C8.36185301 35.99475246 5.62116772 37.54464568 0.75 39.9375 C-5.31317284 41.79457728 -11.82318378 41.94447645 -17.625 39.25 C-22.25614143 36.60763503 -25.28649094 32.87526962 -27.25 27.9375 C-28.04679153 20.18765392 -28.76379777 11.87038463 -23.75 5.41796875 C-17.03484179 -1.2097525 -8.89525784 -2.90806506 0 0 Z " fill="#0E0F56" transform="translate(319.25,279.0625)"/>
<path d="M0 0 C2.33223736 3.49835604 3.15245549 6.91404733 4.125 10.9375 C4.30675781 11.65357422 4.48851562 12.36964844 4.67578125 13.10742188 C5.52085109 16.53535554 6 19.44772031 6 23 C6.66 23 7.32 23 8 23 C7.65775391 21.53626953 7.65775391 21.53626953 7.30859375 20.04296875 C7.02113281 18.77066406 6.73367187 17.49835938 6.4375 16.1875 C6.14746094 14.92292969 5.85742188 13.65835937 5.55859375 12.35546875 C5 9 5 9 6 6 C7.19716659 8.45404224 8.3829346 10.91251679 9.5625 13.375 C10.07586914 14.42300781 10.07586914 14.42300781 10.59960938 15.4921875 C11.46030712 17.30052216 12.23652436 19.14851956 13 21 C12.67 21.66 12.34 22.32 12 23 C11.67 22.67 11.34 22.34 11 22 C11.33 29.26 11.66 36.52 12 44 C11.67 44 11.34 44 11 44 C10.505 41.03 10.505 41.03 10 38 C10 43.61 10 49.22 10 55 C-0.75 59 -0.75 59 -3 59 C-4.19140625 57.53125 -4.19140625 57.53125 -5.5625 55.5 C-13.38785875 44.84777721 -25.57572351 36.50498575 -38 32 C-38 31.67 -38 31.34 -38 31 C-36.88882813 30.91363281 -35.77765625 30.82726562 -34.6328125 30.73828125 C-25.70639026 29.93436128 -18.81458009 28.65307985 -11 24 C-10.01 23.67 -9.02 23.34 -8 23 C-6.87273061 21.17346058 -6.87273061 21.17346058 -6 19 C-5.67 18.33742188 -5.34 17.67484375 -5 16.9921875 C-2.37331124 11.4309949 -0.96232903 6.06520533 0 0 Z " fill="#FDFEFA" transform="translate(77,260)"/>
<path d="M0 0 C3.96 0 7.92 0 12 0 C15.49066954 8.27787349 18.8159568 16.59954559 22 25 C23.84175969 22.23736046 24.83508872 19.99241374 25.9453125 16.89453125 C26.29980469 15.91162109 26.65429688 14.92871094 27.01953125 13.91601562 C27.38433594 12.89185547 27.74914062 11.86769531 28.125 10.8125 C28.49753906 9.77673828 28.87007812 8.74097656 29.25390625 7.67382812 C30.17288515 5.11718169 31.08691631 2.55875778 32 0 C35.63 0 39.26 0 43 0 C42.2730808 3.634596 41.60382574 6.27893594 40.22167969 9.60327148 C39.85749939 10.48446152 39.49331909 11.36565155 39.11810303 12.27354431 C38.72334778 13.21323563 38.32859253 14.15292694 37.921875 15.12109375 C37.51342346 16.09861099 37.10497192 17.07612823 36.68414307 18.08326721 C35.81913882 20.14780017 34.95154369 22.21124924 34.08154297 24.27368164 C32.75812966 27.4181835 31.45105009 30.56915119 30.14453125 33.72070312 C29.30047617 35.72958586 28.45545546 37.7380632 27.609375 39.74609375 C27.22271667 40.68376083 26.83605835 41.62142792 26.43768311 42.58750916 C24.21457754 47.80524738 22.01027182 51.95259604 18 56 C13.00347926 57.66550691 7.94227317 57.63421165 2.9375 56 C2.298125 55.67 1.65875 55.34 1 55 C1.8125 51.5625 1.8125 51.5625 3 48 C6.1964086 46.93453047 8.65747276 46.92572162 12 47 C13.81013453 44.56924792 15.03963999 42.82320709 16 40 C13.82588547 31.50517348 9.84152031 23.50987867 6.3125 15.5 C5.40392483 13.43149562 4.49648378 11.36251031 3.59111023 9.29260254 C2.77844435 7.4355292 1.96219081 5.58002707 1.14575195 3.72460938 C0 1 0 1 0 0 Z " fill="#101157" transform="translate(198,279)"/>
<path d="M0 0 C4.57578439 2.69163788 6.53038774 5.90366322 8.1875 10.875 C8.27108958 13.08589945 8.29481764 15.29926078 8.28515625 17.51171875 C8.28193359 18.81044922 8.27871094 20.10917969 8.27539062 21.44726562 C8.26703531 22.81901108 8.25857037 24.19075587 8.25 25.5625 C8.24498335 26.94596195 8.24042073 28.32942563 8.23632812 29.71289062 C8.22452529 33.10030395 8.20806019 36.48763033 8.1875 39.875 C4.5575 39.875 0.9275 39.875 -2.8125 39.875 C-2.83231934 39.10833008 -2.85213867 38.34166016 -2.87255859 37.55175781 C-2.96785446 34.07582781 -3.07751598 30.60049494 -3.1875 27.125 C-3.2184375 25.9184375 -3.249375 24.711875 -3.28125 23.46875 C-3.31992187 22.30859375 -3.35859375 21.1484375 -3.3984375 19.953125 C-3.4298584 18.88481445 -3.4612793 17.81650391 -3.49365234 16.71582031 C-3.8078377 13.91653943 -4.28127553 12.21911351 -5.8125 9.875 C-8.63251327 8.46499336 -10.68257255 8.62951549 -13.8125 8.875 C-16.55593401 9.88288515 -16.55593401 9.88288515 -18.8125 11.875 C-19.59432537 14.85861467 -19.59432537 14.85861467 -19.51953125 18.29296875 C-19.54853516 19.54658203 -19.57753906 20.80019531 -19.60742188 22.09179688 C-19.61322266 23.40212891 -19.61902344 24.71246094 -19.625 26.0625 C-19.64814287 27.39782731 -19.67350781 28.73311808 -19.70117188 30.06835938 C-19.76018232 33.33753823 -19.79636229 36.60537372 -19.8125 39.875 C-23.4425 39.875 -27.0725 39.875 -30.8125 39.875 C-30.8125 26.675 -30.8125 13.475 -30.8125 -0.125 C-27.1825 -0.125 -23.5525 -0.125 -19.8125 -0.125 C-19.4825 0.535 -19.1525 1.195 -18.8125 1.875 C-18.008125 1.38 -17.20375 0.885 -16.375 0.375 C-10.60967666 -2.05250456 -5.94862287 -1.75533134 0 0 Z " fill="#13145A" transform="translate(368.8125,279.125)"/>
<path d="M0 0 C0.515625 0.66 1.03125 1.32 1.5625 2 C2.366875 2.99 3.17125 3.98 4 5 C4.49757813 5.62777344 4.99515625 6.25554687 5.5078125 6.90234375 C16.38435899 20.08067101 30.39645908 23.08698343 46.73828125 24.703125 C47.81464844 24.80109375 48.89101562 24.8990625 50 25 C47.28240453 27.10136067 44.49931501 28.91115955 41.5625 30.6875 C36.04260434 34.32499302 33.07378745 38.77863765 31 45 C30.90456331 47.10241416 30.87014516 49.20792643 30.875 51.3125 C30.87242188 52.42238281 30.86984375 53.53226562 30.8671875 54.67578125 C30.99472665 57.86801125 31.40242227 60.86508827 32 64 C30.68 64 29.36 64 28 64 C26.03489712 61.67788309 24.40140483 59.47030996 22.75 56.9375 C22.26764893 56.21232178 21.78529785 55.48714355 21.28833008 54.73999023 C11.11560779 39.2050335 0 19.04451285 0 0 Z " fill="#FCFDFD" transform="translate(78,239)"/>
<path d="M0 0 C3.47411267 2.44767029 6.58759322 5.23532497 8.75 8.9375 C7.75 11.9375 7.75 11.9375 4.8125 13.625 C1.75 14.9375 1.75 14.9375 -0.25 14.9375 C-1.26866229 13.28217377 -2.26810813 11.61489862 -3.25 9.9375 C-6.12470493 8.50014754 -8.06894588 8.55577351 -11.25 8.9375 C-13.87287639 10.66814856 -13.87287639 10.66814856 -15.25 13.9375 C-15.92220465 18.97525845 -15.93572564 23.37903264 -13.875 28.0625 C-11.73482631 30.53193118 -10.6893617 30.87891844 -7.4375 31.3125 C-3.24339153 30.81907547 -1.92393123 29.08330144 0.75 25.9375 C4.52545388 27.02818668 7.22043472 27.8458091 9.75 30.9375 C6.80001763 36.34580102 3.72208402 39.15285386 -2.25 40.9375 C-8.95366011 41.98159262 -14.05892349 41.38424266 -19.59765625 37.36328125 C-24.18128267 33.40814262 -26.86878725 29.15121212 -27.5859375 23.10546875 C-27.68669392 15.41775401 -26.99108778 9.82312981 -21.53125 4.15234375 C-15.16131203 -1.55630828 -8.1977157 -2.68002244 0 0 Z " fill="#101158" transform="translate(412.25,279.0625)"/>
<path d="M0 0 C6.75 0.75 6.75 0.75 9 3 C8.37962096 10.59343939 1.77247573 15.50572197 -3.625 20.25 C-14.45323173 28.89754618 -27.25915383 35.63798483 -40 41 C-39.67 41.66 -39.34 42.32 -39 43 C-39.66 43 -40.32 43 -41 43 C-40.94779297 43.87785156 -40.94779297 43.87785156 -40.89453125 44.7734375 C-40.69216111 51.19146188 -41.37240671 57.25246708 -42.4375 63.5625 C-42.57196533 64.36026855 -42.70643066 65.15803711 -42.8449707 65.97998047 C-43.85616278 71.71232555 -43.85616278 71.71232555 -45 74 C-45.66 74 -46.32 74 -47 74 C-47.39832031 72.13794922 -47.39832031 72.13794922 -47.8046875 70.23828125 C-48.16123096 68.59630478 -48.51801444 66.95438041 -48.875 65.3125 C-49.04902344 64.49587891 -49.22304687 63.67925781 -49.40234375 62.83789062 C-50.30722575 58.69889331 -51.38286451 54.92628841 -53 51 C-53 50.01 -53 49.02 -53 48 C-53.84820312 48.27714844 -54.69640625 48.55429687 -55.5703125 48.83984375 C-77.15865442 55.50613395 -77.15865442 55.50613395 -86 51 C-88 49 -88 49 -88.0625 45.875 C-87.18603366 40.75515394 -83.52583603 37.56449651 -80 34 C-79.236875 33.175 -78.47375 32.35 -77.6875 31.5 C-76 30 -76 30 -74 30 C-75.25773953 32.62029069 -76.65157808 35.12227269 -78.125 37.625 C-80.16188098 40.64790887 -80.16188098 40.64790887 -80 43 C-77.10637351 44.44681324 -74.1916991 44.43242376 -70.99609375 44.71875 C-69 45 -69 45 -68 46 C-43.79514802 41.17484977 -15.14979535 30.44486946 0 10 C1.36952673 7.26094655 1.12621361 5.02912668 1 2 C0.505 1.01 0.505 1.01 0 0 Z " fill="#8A9071" transform="translate(131,280)"/>
<path d="M0 0 C0.33 0.66 0.66 1.32 1 2 C0.06553465 4.03144641 -0.93224776 6.03533587 -2 8 C-1.38125 7.34 -0.7625 6.68 -0.125 6 C2 4 2 4 4 4 C4 4.99 4 5.98 4 7 C7.37462715 6.45276317 9.08235 5.9451 12 4 C15.70544587 3.80149397 18.47005387 3.82335129 22 5 C22.11608726 8.27053517 22.18720711 11.5405418 22.25 14.8125 C22.30027344 16.2056543 22.30027344 16.2056543 22.3515625 17.62695312 C22.36445313 18.51962891 22.37734375 19.41230469 22.390625 20.33203125 C22.41157227 21.15421143 22.43251953 21.9763916 22.45410156 22.82348633 C22 25 22 25 20.17871094 26.7800293 C17.34159778 28.36867278 15.19857267 28.2180845 12 28 C12.33 28.99 12.66 29.98 13 31 C14.32 30.67 15.64 30.34 17 30 C16.01 31.98 15.02 33.96 14 36 C14.66 36.33 15.32 36.66 16 37 C9.5353897 37.45365686 6.30914982 36.77766429 1 33 C-5.13110301 26.53748602 -5.4783519 20.32645972 -5.40234375 11.6953125 C-4.84162021 6.54536616 -3.2391249 3.967928 0 0 Z " fill="#101057" transform="translate(250,283)"/>
<path d="M0 0 C2.05078125 0.03255208 4.1015625 0.06510417 6.15234375 0.09765625 C9.42411517 6.43060231 12.25424289 12.88166221 14.96484375 19.47265625 C15.59422852 20.96732422 15.59422852 20.96732422 16.23632812 22.4921875 C16.62755859 23.44222656 17.01878906 24.39226562 17.421875 25.37109375 C17.77870361 26.23138184 18.13553223 27.09166992 18.50317383 27.97802734 C19.15234375 30.09765625 19.15234375 30.09765625 18.15234375 32.09765625 C17.49234375 31.43765625 16.83234375 30.77765625 16.15234375 30.09765625 C16.15234375 29.10765625 16.15234375 28.11765625 16.15234375 27.09765625 C15.49234375 27.09765625 14.83234375 27.09765625 14.15234375 27.09765625 C12.83234375 30.06765625 11.51234375 33.03765625 10.15234375 36.09765625 C5.20234375 35.76765625 0.25234375 35.43765625 -4.84765625 35.09765625 C-4.35265625 32.12765625 -4.35265625 32.12765625 -3.84765625 29.09765625 C-4.20541765 26.8211488 -4.20541765 26.8211488 -4.84765625 25.09765625 C-7.19299576 24.32809489 -7.19299576 24.32809489 -9.84765625 24.09765625 C-11.52248107 25.52217669 -11.52248107 25.52217669 -12.84765625 27.09765625 C-10.95070545 20.96046247 -8.66131276 15.03571349 -6.22265625 9.09765625 C-5.75267212 7.94825562 -5.75267212 7.94825562 -5.27319336 6.77563477 C-2.52199564 0.13329787 -2.52199564 0.13329787 0 0 Z " fill="#101158" transform="translate(170.84765625,262.90234375)"/>
<path d="M0 0 C4.33729795 2.25205855 7.13397371 4.4386024 9 9 C9.52774616 13.74971544 9.47536881 15.99221812 7.4375 20.3125 C4.40673816 23.65410921 2.37369179 24.85280215 -2 26 C-7.00752142 25.87116154 -10.17875095 24.67040738 -14.0625 21.5 C-16.48568799 18.03467172 -16.76320546 14.62865661 -16.5625 10.4765625 C-15.62556538 6.35144758 -13.27013056 3.60178271 -10 1 C-6.38069302 -0.20643566 -3.80768995 -0.32268559 0 0 Z " fill="#FBFDFD" transform="translate(107,229)"/>
<path d="M0 0 C-1 2 -1 2 -3.84375 3.078125 C-5.0503125 3.46484375 -6.256875 3.8515625 -7.5 4.25 C-16.35551931 7.25139374 -23.63030597 11.18953596 -29 19 C-32.64977824 26.82095338 -31.13010499 34.95504989 -29 43 C-33.28897338 45.97845374 -33.28897338 45.97845374 -36.0625 46.0625 C-39.04624642 44.42625196 -40.29143984 41.86794027 -42 39 C-41.67 39.763125 -41.34 40.52625 -41 41.3125 C-40 44 -40 44 -40 47 C-46.625 51 -46.625 51 -50 51 C-50.36696071 48.18865636 -50.71876381 45.37670145 -51.0625 42.5625 C-51.16626953 41.77939453 -51.27003906 40.99628906 -51.37695312 40.18945312 C-52.04649532 34.57915129 -51.80093874 29.59536926 -51 24 C-49.68 24 -48.36 24 -47 24 C-45.25390625 26.16015625 -45.25390625 26.16015625 -43.5625 29.0625 C-42.96179688 30.06023437 -42.36109375 31.05796875 -41.7421875 32.0859375 C-41.16726562 33.04757812 -40.59234375 34.00921875 -40 35 C-38.41384501 37.43321158 -36.78590396 39.70383777 -35 42 C-34.34 42 -33.68 42 -33 42 C-33.23589844 40.70835937 -33.23589844 40.70835937 -33.4765625 39.390625 C-34.80021426 30.81652253 -35.08870978 22.93383659 -30.6953125 15.2265625 C-26.84325283 10.16740579 -21.7063282 6.6914201 -16 4 C-18.31 3.67 -20.62 3.34 -23 3 C-23 2.01 -23 1.02 -23 0 C-19.91722144 -0.1974877 -16.8337715 -0.38123332 -13.75 -0.5625 C-12.87730469 -0.61857422 -12.00460938 -0.67464844 -11.10546875 -0.73242188 C-10.26113281 -0.78076172 -9.41679687 -0.82910156 -8.546875 -0.87890625 C-7.77182617 -0.9260376 -6.99677734 -0.97316895 -6.19824219 -1.02172852 C-3.96887415 -0.99969234 -2.13101433 -0.6303897 0 0 Z " fill="#40446B" transform="translate(142,261)"/>
<path d="M0 0 C0.99 0.33 1.98 0.66 3 1 C3.7734375 3.15234375 3.7734375 3.15234375 4.375 5.9375 C7.01814653 16.4419638 11.3195507 24.7277368 20.58984375 30.65625 C31.87713934 36.83774879 44.31173719 38.31478655 57 39 C57 39.33 57 39.66 57 40 C40.20168294 40.60293062 26.17187194 39.8626682 13 28.234375 C9.69065161 25.06291613 7.28262714 21.99801461 5 18 C7.8103189 33.55536166 13.05116812 47.83128252 20 62 C19.01 62.495 19.01 62.495 18 63 C16.88551258 68.92613671 17.01309092 74.50949017 17.4375 80.5 C17.51581055 81.73363281 17.51581055 81.73363281 17.59570312 82.9921875 C17.72380462 84.99522899 17.86095061 86.99768871 18 89 C21.3 87.35 24.6 85.7 28 84 C27.2265625 82.8553125 27.2265625 82.8553125 26.4375 81.6875 C25.963125 80.800625 25.48875 79.91375 25 79 C25.495 77.515 25.495 77.515 26 76 C27.98 78.97 29.96 81.94 32 85 C30.46609367 85.99127939 28.92244631 86.9674931 27.375 87.9375 C26.51648438 88.48277344 25.65796875 89.02804687 24.7734375 89.58984375 C21.79499367 91.10423561 19.28490344 91.52136534 16 92 C15.49233064 87.83423084 14.99525277 83.66726208 14.5 79.5 C14.35691406 78.32695312 14.21382812 77.15390625 14.06640625 75.9453125 C13.35532828 69.91808019 12.81973046 64.06907438 13 58 C13.66 58 14.32 58 15 58 C14.63648437 57.27039063 14.27296875 56.54078125 13.8984375 55.7890625 C5.12597962 37.56934228 0.88673201 20.11481554 0 0 Z " fill="#474A6D" transform="translate(74,223)"/>
<path d="M0 0 C5.2505298 3.54105498 8.09984076 6.60619568 9.6875 12.8125 C9.0275 12.8125 8.3675 12.8125 7.6875 12.8125 C7.3575 13.4725 7.0275 14.1325 6.6875 14.8125 C6.1925 11.8425 6.1925 11.8425 5.6875 8.8125 C4.6975 8.8125 3.7075 8.8125 2.6875 8.8125 C2.56375 9.43125 2.44 10.05 2.3125 10.6875 C1.6875 12.8125 1.6875 12.8125 -0.3125 14.8125 C-2.37548828 15.03955078 -2.37548828 15.03955078 -4.8828125 15.0078125 C-5.77871094 15.00136719 -6.67460937 14.99492187 -7.59765625 14.98828125 C-8.53480469 14.97152344 -9.47195313 14.95476562 -10.4375 14.9375 C-11.38238281 14.92847656 -12.32726562 14.91945313 -13.30078125 14.91015625 C-15.63827292 14.88654522 -17.97526123 14.85361516 -20.3125 14.8125 C-20.3125 14.1525 -20.3125 13.4925 -20.3125 12.8125 C-20.9725 12.4825 -21.6325 12.1525 -22.3125 11.8125 C-22.9725 13.1325 -23.6325 14.4525 -24.3125 15.8125 C-25.3025 15.8125 -26.2925 15.8125 -27.3125 15.8125 C-27.1743545 10.28668016 -24.83683383 7.43732609 -21.1953125 3.58203125 C-15.12467051 -2.12336464 -7.67355569 -2.75089732 0 0 Z " fill="#0E1057" transform="translate(453.3125,279.1875)"/>
<path d="M0 0 C2.60224857 2.17862671 3.49450535 3.18630013 4.6875 6.25 C4.95821457 9.40269678 4.60478843 12.22294817 3.6875 15.25 C0.65244147 18.71863832 -1.44972555 20.0078177 -5.875 21.25 C-10.45489404 21.25 -12.49693245 19.78762881 -15.89453125 16.91015625 C-18.5024989 13.8567506 -18.53835674 10.14270733 -18.3125 6.25 C-16.72054049 3.00711951 -15.36645191 1.04954972 -12.5 -1.125 C-7.73869727 -2.48537221 -4.38912283 -2.31878187 0 0 Z " fill="#FDFDF8" transform="translate(64.3125,262.75)"/>
<path d="M0 0 C4.41854291 3.11306432 8.02390999 6.75922996 9.75 11.9375 C9.78954234 14.27049825 9.79401732 16.60458189 9.75 18.9375 C9.255 16.9575 9.255 16.9575 8.75 14.9375 C8.09 14.9375 7.43 14.9375 6.75 14.9375 C6.255 13.9475 6.255 13.9475 5.75 12.9375 C5.09 12.9375 4.43 12.9375 3.75 12.9375 C4.08 13.9275 4.41 14.9175 4.75 15.9375 C2.75 15.9375 2.75 15.9375 1.125 14.4375 C0.67125 13.9425 0.2175 13.4475 -0.25 12.9375 C-0.25 13.5975 -0.25 14.2575 -0.25 14.9375 C-5.53 14.9375 -10.81 14.9375 -16.25 14.9375 C-15.92 12.6275 -15.59 10.3175 -15.25 7.9375 C-15.58 8.5975 -15.91 9.2575 -16.25 9.9375 C-16.91 9.9375 -17.57 9.9375 -18.25 9.9375 C-18.58 8.6175 -18.91 7.2975 -19.25 5.9375 C-22.85654039 8.34186026 -23.10452932 9.88429607 -24.25 13.9375 C-25.24 13.9375 -26.23 13.9375 -27.25 13.9375 C-25.54043869 7.81157196 -23.19235988 3.82398703 -17.625 0.625 C-11.79267321 -2.05177685 -6.03786487 -1.97391736 0 0 Z " fill="#0F1056" transform="translate(319.25,279.0625)"/>
<path d="M0 0 C0.99 0.33 1.98 0.66 3 1 C3.12375 2.1446875 3.12375 2.1446875 3.25 3.3125 C3.81706917 6.02233797 3.81706917 6.02233797 5.5 7.875 C9.30396716 9.58678522 13.03013194 9.15513656 17 8 C18.02063688 7.02107184 19.02384967 6.02329396 20 5 C23.4221787 5.08774817 24.74519151 5.77273837 27.3125 8.0625 C27.869375 8.701875 28.42625 9.34125 29 10 C25.65869894 14.55631963 22.70803371 17.74423258 17 19 C10.46282746 19.72935396 4.49064275 19.70909821 -1.30859375 16.35546875 C-4.25907865 13.9909924 -6.02592653 11.20786939 -8 8 C-7.01 7.67 -6.02 7.34 -5 7 C-5 5.02 -5 3.04 -5 1 C-2.83125748 1.50603992 -1.00032373 1.99983813 1 3 C0.67 2.01 0.34 1.02 0 0 Z " fill="#111258" transform="translate(435,301)"/>
<path d="M0 0 C0.99 0.33 1.98 0.66 3 1 C6.71700403 10.39171837 9.55007417 21.82362783 9 32 C8.34 32 7.68 32 7 32 C5.35 25.4 3.7 18.8 2 12 C1.443125 13.815 0.88625 15.63 0.3125 17.5 C-2.81867838 26.70934818 -5.73719281 32.05874504 -14.453125 36.81640625 C-20.68844355 39.71410797 -27.21072068 40.40279487 -34 41 C-33.10539062 41.4846875 -32.21078125 41.969375 -31.2890625 42.46875 C-20.05019569 48.65589747 -9.76886134 55.54024814 -2 66 C-2 66.66 -2 67.32 -2 68 C-1.01 68.495 -1.01 68.495 0 69 C-1.32 69 -2.64 69 -4 69 C-5.46484375 67.3828125 -5.46484375 67.3828125 -6.9375 65.125 C-15.0417585 54.26835182 -25.95749464 48.63800684 -38.10400391 43.31079102 C-38.98233887 42.92076904 -39.86067383 42.53074707 -40.765625 42.12890625 C-41.55743164 41.78931885 -42.34923828 41.44973145 -43.16503906 41.09985352 C-45 40 -45 40 -46 37 C-44.73285156 37.02320313 -43.46570312 37.04640625 -42.16015625 37.0703125 C-40.46094345 37.08908833 -38.7617242 37.10728657 -37.0625 37.125 C-35.81629883 37.15013672 -35.81629883 37.15013672 -34.54492188 37.17578125 C-25.2177381 37.24836634 -17.45416058 35.84473954 -10 30 C-4.32160536 24.16813524 -2.6154706 17.52051739 -1.875 9.6875 C-1.10669694 2.21339387 -1.10669694 2.21339387 0 0 Z " fill="#898F6E" transform="translate(76,251)"/>
<path d="M0 0 C6.75 0.75 6.75 0.75 9 3 C8.37962096 10.59343939 1.77247573 15.50572197 -3.625 20.25 C-14.45323173 28.89754618 -27.25915383 35.63798483 -40 41 C-39.67 41.66 -39.34 42.32 -39 43 C-39.66 43 -40.32 43 -41 43 C-41 45.97 -41 48.94 -41 52 C-41.33 52 -41.66 52 -42 52 C-42 49.69 -42 47.38 -42 45 C-47.42491537 43.59071056 -50.95830178 44.58304992 -56.0625 46.375 C-63.1800419 48.78055734 -69.13130732 50.15049612 -76.6875 50.1875 C-77.70166992 50.20586914 -77.70166992 50.20586914 -78.73632812 50.22460938 C-80.49247427 50.2298516 -82.24811122 50.12232123 -84 50 C-84.66 49.34 -85.32 48.68 -86 48 C-85.75 45.4375 -85.75 45.4375 -85 43 C-84.01 42.505 -84.01 42.505 -83 42 C-82.566875 42.66 -82.13375 43.32 -81.6875 44 C-77.28419068 47.27688136 -73.30846511 46.67023079 -68 46 C-43.87480736 41.56114736 -14.98065171 30.21660765 0 10 C1.36952673 7.26094655 1.12621361 5.02912668 1 2 C0.505 1.01 0.505 1.01 0 0 Z " fill="#FCFEEF" transform="translate(131,280)"/>
<path d="M0 0 C0.99 0.33 1.98 0.66 3 1 C3.11608726 4.27053517 3.18720711 7.5405418 3.25 10.8125 C3.30027344 12.2056543 3.30027344 12.2056543 3.3515625 13.62695312 C3.36445313 14.51962891 3.37734375 15.41230469 3.390625 16.33203125 C3.41157227 17.15421143 3.43251953 17.9763916 3.45410156 18.82348633 C3 21 3 21 1.19042969 22.76049805 C-2.08207726 24.61231679 -4.30724147 24.5182819 -8 24 C-10.66988816 21.91052231 -12.45640785 20.25444343 -13.8125 17.125 C-13.9053125 16.073125 -13.9053125 16.073125 -14 15 C-14.103125 13.88625 -14.20625 12.7725 -14.3125 11.625 C-13.93947425 7.29790125 -12.71715334 5.33821697 -10 2 C-6.31884463 -0.45410358 -4.34706402 -0.23287843 0 0 Z " fill="#F7F7FB" transform="translate(269,287)"/>
<path d="M0 0 C3.10244062 0.1880267 3.97978188 0.97726415 6.0703125 3.328125 C7.08738281 4.77445312 7.08738281 4.77445312 8.125 6.25 C8.80820313 7.20390625 9.49140625 8.1578125 10.1953125 9.140625 C11.84620376 11.75632284 13.11600223 14.04009737 14 17 C13.67 17.99 13.34 18.98 13 20 C8.02642312 18.2657267 3.68501047 15.56672043 -0.8125 12.875 C-1.60076172 12.40707031 -2.38902344 11.93914062 -3.20117188 11.45703125 C-5.13602454 10.30784603 -7.06887228 9.15542997 -9 8 C-7.20836009 3.80219635 -5.14892195 2.85377364 -1 1 C-0.67 0.67 -0.34 0.34 0 0 Z " fill="#434877" transform="translate(114,311)"/>
<path d="M0 0 C0.495 1.485 0.495 1.485 1 3 C0.11957031 3.60328125 -0.76085937 4.2065625 -1.66796875 4.828125 C-2.84121394 5.63531769 -4.0143872 6.44261492 -5.1875 7.25 C-5.76564453 7.64574219 -6.34378906 8.04148437 -6.93945312 8.44921875 C-9.61458502 10.29309497 -12.19172917 12.15536674 -14.71875 14.203125 C-18.13593239 16.89474127 -22.06872423 18.32125453 -26.15625 19.7578125 C-30.31867217 21.38547561 -30.31867217 21.38547561 -32.84375 24.87109375 C-33.3504345 27.2398438 -33.67418522 29.59983109 -34 32 C-34.44503023 34.00787171 -34.92469772 36.00835884 -35.4375 38 C-35.66308594 38.928125 -35.88867188 39.85625 -36.12109375 40.8125 C-36.41113281 41.534375 -36.70117188 42.25625 -37 43 C-38.485 43.495 -38.485 43.495 -40 44 C-40.82565683 37.03526265 -41.49541651 29.67971628 -39 23 C-34.70732865 18.29449939 -28.3499518 16.29890187 -22.53710938 14.05175781 C-18.66644747 12.44717626 -15.17573588 10.3332634 -11.625 8.125 C-11.02606934 7.76696289 -10.42713867 7.40892578 -9.81005859 7.04003906 C-6.31908562 4.93088877 -3.12910136 2.61344421 0 0 Z " fill="#888F6E" transform="translate(129,298)"/>
<path d="M0 0 C1.66869141 -0.03867187 1.66869141 -0.03867187 3.37109375 -0.078125 C6.91289378 0.2860258 8.7700001 1.06835945 11.5625 3.25 C12.31344979 7.00474897 11.79408183 8.81462616 10 12.1875 C7.10209855 15.82845311 3.9334038 19.04953516 0.5625 22.25 C0.2325 21.26 -0.0975 20.27 -0.4375 19.25 C0.04460937 18.79109375 0.52671875 18.3321875 1.0234375 17.859375 C1.65507812 17.24578125 2.28671875 16.6321875 2.9375 16 C3.56398437 15.39671875 4.19046875 14.7934375 4.8359375 14.171875 C6.55767174 12.25537445 7.62172488 10.64113675 8.5625 8.25 C8.26444993 6.05252869 8.26444993 6.05252869 7.5625 4.25 C4.5925 3.755 4.5925 3.755 1.5625 3.25 C1.8925 3.58 2.2225 3.91 2.5625 4.25 C2.99019763 7.92819962 2.75253232 9.89273924 1 13.1875 C-5.13628719 20.89719416 -12.11158033 25.98648757 -20.4375 31.25 C-21.0975 30.92 -21.7575 30.59 -22.4375 30.25 C-22.4375 29.59 -22.4375 28.93 -22.4375 28.25 C-20.6015625 27.05859375 -20.6015625 27.05859375 -18.0625 25.6875 C-11.53511795 21.90310613 -3.1334241 16.66379128 -0.4375 9.25 C-0.4375 7.93 -0.4375 6.61 -0.4375 5.25 C-3.7375 4.59 -7.0375 3.93 -10.4375 3.25 C-10.4375 2.59 -10.4375 1.93 -10.4375 1.25 C-6.9407451 0.18985915 -3.6441659 0.0505549 0 0 Z " fill="#878D6D" transform="translate(130.4375,277.75)"/>
<path d="M0 0 C0 1.98 0 3.96 0 6 C0.99 5.67 1.98 5.34 3 5 C2.52639789 8.29249253 2.04517553 11.58382638 1.5625 14.875 C1.42779297 15.81214844 1.29308594 16.74929688 1.15429688 17.71484375 C1.02216797 18.61074219 0.89003906 19.50664062 0.75390625 20.4296875 C0.63345947 21.25710449 0.5130127 22.08452148 0.38891602 22.93701172 C0 25 0 25 -1 27 C-1.66 27 -2.32 27 -3 27 C-3.26554687 25.75863281 -3.53109375 24.51726562 -3.8046875 23.23828125 C-4.16123096 21.59630478 -4.51801444 19.95438041 -4.875 18.3125 C-5.04902344 17.49587891 -5.22304687 16.67925781 -5.40234375 15.83789062 C-6.13419807 12.49033477 -6.85767057 9.35582356 -8.1328125 6.16796875 C-9 4 -9 4 -9 0 C-5.93109813 -1.53445094 -3.29905734 -0.54984289 0 0 Z " fill="#858D64" transform="translate(87,327)"/>
<path d="M0 0 C4.33729795 2.25205855 7.13397371 4.4386024 9 9 C9.52774616 13.74971544 9.47536881 15.99221812 7.4375 20.3125 C4.40673816 23.65410921 2.37369179 24.85280215 -2 26 C-7.00752142 25.87116154 -10.17875095 24.67040738 -14.0625 21.5 C-16.48568799 18.03467172 -16.76320546 14.62865661 -16.5625 10.4765625 C-15.62556538 6.35144758 -13.27013056 3.60178271 -10 1 C-6.38069302 -0.20643566 -3.80768995 -0.32268559 0 0 Z M-12.8125 6.6875 C-14.5564679 10.08364801 -14.68081506 13.3104216 -14 17 C-12.20636089 19.8100346 -10.98119065 21.50940468 -8 23 C-4.94079426 23.42071592 -2.0532254 23.48514117 1 23 C3.75569447 20.81840855 5.43588747 19.12822506 7 16 C7.43964729 12.13110388 7.12635224 10.24334506 5.3125 6.75 C2.88653981 3.86507437 1.60734064 2.90183516 -2 2 C-6.97166991 2 -9.22600404 3.34834859 -12.8125 6.6875 Z " fill="#4C4D72" transform="translate(107,229)"/>
<path d="M0 0 C3.00140922 3.71045773 5.89335474 7.48963648 8.75 11.3125 C9.16121094 11.86228516 9.57242188 12.41207031 9.99609375 12.97851562 C10.99813666 14.31845673 11.99917397 15.65914974 13 17 C10.4624958 19.60637175 8.42781126 21.67310532 5 23 C4.01 23 3.02 23 2 23 C1.66324721 20.10452736 1.33048266 17.20868928 1 14.3125 C0.90460938 13.49587891 0.80921875 12.67925781 0.7109375 11.83789062 C0.26129478 7.87139948 -0.13034543 3.99997537 0 0 Z " fill="#F8FAFD" transform="translate(90,289)"/>
<path d="M0 0 C-10.98901278 5.33833179 -22.41986852 9.12742345 -34.6875 9.1875 C-35.70166992 9.20586914 -35.70166992 9.20586914 -36.73632812 9.22460938 C-38.49247427 9.2298516 -40.24811122 9.12232123 -42 9 C-42.66 8.34 -43.32 7.68 -44 7 C-43.75 4.4375 -43.75 4.4375 -43 2 C-42.34 1.67 -41.68 1.34 -41 1 C-40.566875 1.66 -40.13375 2.32 -39.6875 3 C-35.29353007 6.26993111 -31.29758617 5.69781596 -26 5 C-0.98813741 -0.30666333 -0.98813741 -0.30666333 0 0 Z " fill="#FCFDF1" transform="translate(89,321)"/>
<path d="M0 0 C3.38499169 2.67027203 4.37740665 6.24138801 5.6875 10.1875 C5.91244141 10.84169922 6.13738281 11.49589844 6.36914062 12.16992188 C6.92057309 13.77728884 7.46134891 15.38830483 8 17 C3.38 17 -1.24 17 -6 17 C-5.15813297 12.79066487 -4.10885537 9.58732921 -2.4375 5.6875 C-1.75494141 4.08455078 -1.75494141 4.08455078 -1.05859375 2.44921875 C-0.53458984 1.23685547 -0.53458984 1.23685547 0 0 Z " fill="#F2F3F8" transform="translate(172,281)"/>
<path d="M0 0 C2.60224857 2.17862671 3.49450535 3.18630013 4.6875 6.25 C4.95821457 9.40269678 4.60478843 12.22294817 3.6875 15.25 C0.65244147 18.71863832 -1.44972555 20.0078177 -5.875 21.25 C-10.45489404 21.25 -12.49693245 19.78762881 -15.89453125 16.91015625 C-18.5024989 13.8567506 -18.53835674 10.14270733 -18.3125 6.25 C-16.72054049 3.00711951 -15.36645191 1.04954972 -12.5 -1.125 C-7.73869727 -2.48537221 -4.38912283 -2.31878187 0 0 Z M-15.3125 4.25 C-16.72250664 7.07001327 -16.55798451 9.12007255 -16.3125 12.25 C-15.04961341 15.02835049 -13.9602829 16.74102772 -11.5625 18.625 C-8.17137913 19.56697802 -5.70258797 19.09752199 -2.3125 18.25 C0.96248169 15.57830441 2.52998982 13.6675916 3 9.4375 C2.61585642 5.5192355 1.39493683 4.03706733 -1.3125 1.25 C-6.80292646 -1.49521323 -11.21398521 0.15148521 -15.3125 4.25 Z " fill="#898E73" transform="translate(64.3125,262.75)"/>
<path d="M0 0 C-1 2 -1 2 -3.84375 3.078125 C-5.0503125 3.46484375 -6.256875 3.8515625 -7.5 4.25 C-13.70834066 6.33052614 -18.78004937 9.07063319 -24 13 C-24.99 13.66 -25.98 14.32 -27 15 C-27.66 14.34 -28.32 13.68 -29 13 C-27.58680023 11.87064804 -26.16928595 10.74669374 -24.75 9.625 C-23.96109375 8.99851562 -23.1721875 8.37203125 -22.359375 7.7265625 C-20.28818811 6.21089263 -18.32930503 5.05780366 -16 4 C-18.31 3.67 -20.62 3.34 -23 3 C-23 2.01 -23 1.02 -23 0 C-19.91722144 -0.1974877 -16.8337715 -0.38123332 -13.75 -0.5625 C-12.87730469 -0.61857422 -12.00460938 -0.67464844 -11.10546875 -0.73242188 C-10.26113281 -0.78076172 -9.41679687 -0.82910156 -8.546875 -0.87890625 C-7.77182617 -0.9260376 -6.99677734 -0.97316895 -6.19824219 -1.02172852 C-3.96887415 -0.99969234 -2.13101433 -0.6303897 0 0 Z " fill="#54567B" transform="translate(142,261)"/>
<path d="M0 0 C3.34780672 0.20289738 4.68813672 0.67983618 7.0546875 3.109375 C7.65539062 3.98078125 8.25609375 4.8521875 8.875 5.75 C9.49117187 6.61109375 10.10734375 7.4721875 10.7421875 8.359375 C12.21406311 11.44939957 12.02557114 12.7965306 11 16 C6.22390502 14.35821735 2.20617096 11.73453298 -2 9 C-1.34 8.67 -0.68 8.34 0 8 C0.99 8.33 1.98 8.66 3 9 C1.73025028 4.58477891 1.73025028 4.58477891 -1 1 C-0.67 0.67 -0.34 0.34 0 0 Z " fill="#565C8C" transform="translate(116,315)"/>
<path d="M0 0 C2.56030298 2.56030298 3.65972186 5.21945027 5.1875 8.5 C5.73792969 9.6653125 6.28835937 10.830625 6.85546875 12.03125 C7.23316406 13.0109375 7.61085938 13.990625 8 15 C7.67 15.66 7.34 16.32 7 17 C6.67 16.67 6.34 16.34 6 16 C6.33 23.26 6.66 30.52 7 38 C6.67 38 6.34 38 6 38 C5.01 34.535 5.01 34.535 4 31 C3.67 31 3.34 31 3 31 C2.34 26.38 1.68 21.76 1 17 C1.66 17 2.32 17 3 17 C2.7834375 16.02417969 2.566875 15.04835938 2.34375 14.04296875 C1.92609375 12.13451172 1.92609375 12.13451172 1.5 10.1875 C1.08234375 8.29064453 1.08234375 8.29064453 0.65625 6.35546875 C0 3 0 3 0 0 Z " fill="#A8AF9D" transform="translate(82,266)"/>
<path d="M0 0 C2.875 2.375 2.875 2.375 5 5 C5 5.66 5 6.32 5 7 C-0.28 7 -5.56 7 -11 7 C-10 3 -10 3 -8.3125 1.25 C-5.2203804 -0.421416 -3.47163403 -0.56679739 0 0 Z " fill="#F1F2F9" transform="translate(314,287)"/>
<path d="M0 0 C-0.64098355 3.00769204 -1.30574594 6.0044223 -2 9 C-2.34417969 10.49080078 -2.34417969 10.49080078 -2.6953125 12.01171875 C-2.94023438 12.99785156 -3.18515625 13.98398437 -3.4375 15 C-3.66308594 15.928125 -3.88867188 16.85625 -4.12109375 17.8125 C-4.41113281 18.534375 -4.70117188 19.25625 -5 20 C-5.99 20.33 -6.98 20.66 -8 21 C-7.67 14.73 -7.34 8.46 -7 2 C-2 0 -2 0 0 0 Z " fill="#3B406A" transform="translate(97,321)"/>
<path d="M0 0 C2.875 1.8125 2.875 1.8125 5 4 C5 4.99 5 5.98 5 7 C-0.28 7 -5.56 7 -11 7 C-8.4849168 0.712292 -6.63371802 -0.79604616 0 0 Z " fill="#F2F3F9" transform="translate(448,287)"/>
<path d="M0 0 C6.75 0.75 6.75 0.75 9 3 C9 7.61706585 6.4101363 10.29810572 3.5703125 13.64453125 C2 15 2 15 -1 15 C-0.125 10.25 -0.125 10.25 1 8 C1.24787017 3.85496339 1.24787017 3.85496339 0 0 Z " fill="#FDFDF5" transform="translate(131,280)"/>
<path d="M0 0 C0 0.33 0 0.66 0 1 C-0.61488281 1.17015625 -1.22976562 1.3403125 -1.86328125 1.515625 C-6.78302986 2.97048799 -6.78302986 2.97048799 -11.0625 5.6875 C-12.46672687 9.15125961 -12.79276112 12.37491961 -12 16 C-9.7495803 18.91790525 -9.7495803 18.91790525 -7 21 C-6.34 21.66 -5.68 22.32 -5 23 C-5.99 23.33 -6.98 23.66 -8 24 C-13.55555556 19.88888889 -13.55555556 19.88888889 -15 17 C-15.75927918 11.74271254 -15.81047158 7.26245333 -12.5625 2.875 C-8.83987857 -0.93689292 -5.03218947 -0.70450653 0 0 Z " fill="#47486B" transform="translate(106,230)"/>
<path d="M0 0 C-0.66 0 -1.32 0 -2 0 C-1.87625 1.11375 -1.87625 1.11375 -1.75 2.25 C-2 5 -2 5 -3.625 7.3125 C-6.60457419 9.42956587 -8.42236811 9.32523926 -12 9 C-12 8.01 -12 7.02 -12 6 C-12.66 5.34 -13.32 4.68 -14 4 C-12.42466914 3.13116294 -10.83935491 2.28040932 -9.25 1.4375 C-8.36828125 0.96183594 -7.4865625 0.48617188 -6.578125 -0.00390625 C-3.79298812 -1.07998186 -2.73019786 -1.06528748 0 0 Z " fill="#0A0B56" transform="translate(322,310)"/>
<path d="M0 0 C3.00765886 2.84936103 5.27845212 5.23511958 7 9 C-3.37357631 15.70387244 -3.37357631 15.70387244 -9 16 C-9 12.04 -9 8.08 -9 4 C-7 6 -7 6 -6.875 9.625 C-6.91625 10.73875 -6.9575 11.8525 -7 13 C-3.7 11.35 -0.4 9.7 3 8 C2.505 7.236875 2.01 6.47375 1.5 5.6875 C0 3 0 3 0 0 Z " fill="#404468" transform="translate(99,299)"/>
<path d="M0 0 C0 0.66 0 1.32 0 2 C-4.95 4.31 -9.9 6.62 -15 9 C-14.67 9.66 -14.34 10.32 -14 11 C-14.66 11 -15.32 11 -16 11 C-16 13.97 -16 16.94 -16 20 C-16.33 20 -16.66 20 -17 20 C-17 17.69 -17 15.38 -17 13 C-17.99 12.67 -18.98 12.34 -20 12 C-20 11.34 -20 10.68 -20 10 C-19.34 9.67 -18.68 9.34 -18 9 C-18.33 8.34 -18.66 7.68 -19 7 C-16.39869373 5.8265684 -13.79431492 4.66107492 -11.1875 3.5 C-10.44951172 3.16613281 -9.71152344 2.83226562 -8.95117188 2.48828125 C-8.23896484 2.17246094 -7.52675781 1.85664063 -6.79296875 1.53125 C-6.1383667 1.23798828 -5.48376465 0.94472656 -4.80932617 0.64257812 C-3 0 -3 0 0 0 Z " fill="#F8FAE9" transform="translate(106,312)"/>
<path d="M0 0 C4.835355 7.2530325 6.46671673 17.36574045 6 26 C5.34 26 4.68 26 4 26 C3.12867639 22.60833365 2.28101682 19.21117918 1.4375 15.8125 C1.19064453 14.85279297 0.94378906 13.89308594 0.68945312 12.90429688 C0.46064453 11.97294922 0.23183594 11.04160156 -0.00390625 10.08203125 C-0.21861572 9.22843018 -0.4333252 8.3748291 -0.65454102 7.49536133 C-1.03643718 4.7368025 -0.69085484 2.68152472 0 0 Z " fill="#959D85" transform="translate(79,257)"/>
<path d="M0 0 C0.99 0.33 1.98 0.66 3 1 C3 1.66 3 2.32 3 3 C0.82075876 4.18483019 -1.36629415 5.34738133 -3.5625 6.5 C-4.17158203 6.83386719 -4.78066406 7.16773438 -5.40820312 7.51171875 C-9.76015161 9.76828463 -12.99585571 10.36065905 -18 10 C-17.67 7.69 -17.34 5.38 -17 3 C-16.67 3 -16.34 3 -16 3 C-16 4.65 -16 6.3 -16 8 C-11.56159209 6.1078896 -7.24162272 4.21741589 -3.125 1.6875 C-2.09375 1.130625 -1.0625 0.57375 0 0 Z " fill="#8C9382" transform="translate(106,307)"/>
<path d="M0 0 C1.60725635 3.21451269 1.05748185 6.43612536 1 10 C0.34 10 -0.32 10 -1 10 C-1.33 8.35 -1.66 6.7 -2 5 C-2.763125 5 -3.52625 5 -4.3125 5 C-7.875 5 -11.4375 5 -15 5 C-14 3 -14 3 -12.109375 2.1484375 C-4.28930818 -0.41509434 -4.28930818 -0.41509434 0 0 Z " fill="#878E6A" transform="translate(88,323)"/>
<path d="M0 0 C1.32 0 2.64 0 4 0 C4.2475 1.216875 4.495 2.43375 4.75 3.6875 C5.7049925 7.58359258 7.22781085 10.04299824 10 13 C9.67 13.66 9.34 14.32 9 15 C8.01 15 7.02 15 6 15 C2.59324916 11.26998083 0.15575944 7.47971467 -0.375 2.4375 C-0.25125 1.633125 -0.1275 0.82875 0 0 Z " fill="#646889" transform="translate(91,285)"/>
<path d="M0 0 C4.20330158 3.82118326 7.27094114 8.09250054 10.44921875 12.79296875 C11.95312918 15.06781756 11.95312918 15.06781756 14 17 C13.34 17 12.68 17 12 17 C12 17.66 12 18.32 12 19 C8.51236025 17.83745342 7.93391627 17.02699938 6 14 C5.690625 13.21625 5.38125 12.4325 5.0625 11.625 C4.02908658 8.80646209 4.02908658 8.80646209 1.875 5.875 C0 3 0 3 0 0 Z " fill="#5C6087" transform="translate(95,288)"/>
<path d="M0 0 C0.33 0 0.66 0 1 0 C1 9.24 1 18.48 1 28 C-2.3 28 -5.6 28 -9 28 C-9 25.36 -9 22.72 -9 20 C-8.67 20 -8.34 20 -8 20 C-7.67 21.98 -7.34 23.96 -7 26 C-4.69 26 -2.38 26 0 26 C-0.165 25.34386719 -0.33 24.68773437 -0.5 24.01171875 C-1.12248064 20.26224554 -1.0685125 16.59781568 -1 12.8125 C-0.69192307 7.75744993 -0.69192307 7.75744993 -2 3 C-1.34 2.01 -0.68 1.02 0 0 Z " fill="#0A0D46" transform="translate(348,291)"/>
<path d="M0 0 C-0.33 5.61 -0.66 11.22 -1 17 C-2.74949772 14.37575342 -3.65389981 12.44272784 -4.625 9.5 C-5.01558594 8.33984375 -5.01558594 8.33984375 -5.4140625 7.15625 C-6 5 -6 5 -6 2 C-1.125 0 -1.125 0 0 0 Z " fill="#FCFCF0" transform="translate(87,327)"/>
<path d="M0 0 C3.98713576 7.78921459 4.15144852 13.39525636 3 22 C2.34 22 1.68 22 1 22 C0.00137301 14.63512596 -0.10331031 7.42686315 0 0 Z " fill="#828C72" transform="translate(86,294)"/>
<path d="M0 0 C0.66 0.33 1.32 0.66 2 1 C1.0409375 2.3921875 1.0409375 2.3921875 0.0625 3.8125 C-2.08622093 6.84219943 -2.08622093 6.84219943 -3 10 C0.99060386 10.12826294 0.99060386 10.12826294 4.90625 9.5 C7.25678298 8.93867869 9.33694909 8.90201396 11.75 8.9375 C12.54921875 8.94652344 13.3484375 8.95554687 14.171875 8.96484375 C14.77515625 8.97644531 15.3784375 8.98804688 16 9 C10.18643936 12.05584598 4.46274109 12.31783973 -2 12 C-2.99 11.34 -3.98 10.68 -5 10 C-3.84414715 6.08788267 -2.64465038 3.1254959 0 0 Z " fill="#FBFDEE" transform="translate(55,313)"/>
<path d="M0 0 C0.66 0 1.32 0 2 0 C2.33 0.66 2.66 1.32 3 2 C3.99 2.33 4.98 2.66 6 3 C6 3.66 6 4.32 6 5 C5.01 5.495 5.01 5.495 4 6 C3.67 6.99 3.34 7.98 3 9 C1.35 8.67 -0.3 8.34 -2 8 C-1.125 1.125 -1.125 1.125 0 0 Z " fill="#090A58" transform="translate(228,292)"/>
<path d="M0 0 C2 1 2 1 3 3 C2.34 3 1.68 3 1 3 C1.515625 4.19625 2.03125 5.3925 2.5625 6.625 C4.01409117 10.43712261 4.10033405 12.99878527 3 17 C1.59540269 14.40689727 0.45391647 11.74075463 -0.625 9 C-0.88539062 8.34 -1.14578125 7.68 -1.4140625 7 C-2 5 -2 5 -2 1 C-1.34 0.67 -0.68 0.34 0 0 Z " fill="#909775" transform="translate(80,326)"/>
<path d="M0 0 C2.56030298 2.56030298 3.65972186 5.21945027 5.1875 8.5 C5.73792969 9.6653125 6.28835937 10.830625 6.85546875 12.03125 C7.23316406 13.0109375 7.61085938 13.990625 8 15 C7.67 15.66 7.34 16.32 7 17 C6.01 16.34 5.02 15.68 4 15 C3.67 15.66 3.34 16.32 3 17 C2.49622232 14.73000175 1.99709981 12.45896997 1.5 10.1875 C1.08234375 8.29064453 1.08234375 8.29064453 0.65625 6.35546875 C0 3 0 3 0 0 Z " fill="#F7FBFA" transform="translate(82,266)"/>
<path d="M0 0 C8.33639002 0.63195215 16.66950287 1.29453448 25 2 C25 2.33 25 2.66 25 3 C21.77090994 3.05834353 18.54195662 3.09371115 15.3125 3.125 C14.40048828 3.14175781 13.48847656 3.15851563 12.54882812 3.17578125 C7.93151773 3.20936169 4.18067669 3.23556185 0 1 C0 0.67 0 0.34 0 0 Z " fill="#41436A" transform="translate(106,260)"/>
<path d="M0 0 C0.99 0.33 1.98 0.66 3 1 C3.66 4.3 4.32 7.6 5 11 C4.34 11 3.68 11 3 11 C2.67 12.98 2.34 14.96 2 17 C1.67 17 1.34 17 1 17 C0.67 11.39 0.34 5.78 0 0 Z " fill="#4D5378" transform="translate(74,223)"/>
<path d="M0 0 C0.66 0.33 1.32 0.66 2 1 C0.41727399 4.16545202 -2.39683131 4.71120622 -5.5625 6.125 C-6.76003906 6.66382813 -7.95757812 7.20265625 -9.19140625 7.7578125 C-10.11824219 8.16773438 -11.04507813 8.57765625 -12 9 C-12.66 8.34 -13.32 7.68 -14 7 C-11.71296692 5.80274117 -9.42115138 4.61702982 -7.125 3.4375 C-6.14853516 2.92413086 -6.14853516 2.92413086 -5.15234375 2.40039062 C-3.46470143 1.53917109 -1.73420407 0.76313297 0 0 Z " fill="#838B6F" transform="translate(104,314)"/>
<path d="M0 0 C2.3125 0 2.3125 0 5 1 C6.6721029 3.23482984 7.76022695 5.47453638 9 8 C7.68 8 6.36 8 5 8 C4.67 7.01 4.34 6.02 4 5 C3.34 4.67 2.68 4.34 2 4 C0.9805881 3.01979625 -0.02246356 2.02196992 -1 1 C-0.67 0.67 -0.34 0.34 0 0 Z " fill="#373E75" transform="translate(116,315)"/>
<path d="M0 0 C1.60379341 -0.05416188 3.20811406 -0.09286638 4.8125 -0.125 C5.70582031 -0.14820313 6.59914063 -0.17140625 7.51953125 -0.1953125 C10 0 10 0 13 2 C9.60686626 4.0880823 6.95400991 4.50476722 3 4 C1.31640625 1.9765625 1.31640625 1.9765625 0 0 Z " fill="#1F1E5E" transform="translate(306,278)"/>
<path d="M0 0 C2.03144641 0.93446535 4.03533587 1.93224776 6 3 C6 3.99 6 4.98 6 6 C4.1875 6.625 4.1875 6.625 2 7 C-1 5 -1 5 -1.6875 2.875 C-1.790625 2.25625 -1.89375 1.6375 -2 1 C-1.34 0.67 -0.68 0.34 0 0 Z " fill="#9195AC" transform="translate(110,316)"/>
<path d="M0 0 C0.99 0.99 1.98 1.98 3 3 C2 6 2 6 -0.9375 7.6875 C-4 9 -4 9 -6 9 C-6.33 7.68 -6.66 6.36 -7 5 C-3.94736336 4.01879536 -2.05263664 4.01879536 1 5 C0.67 3.35 0.34 1.7 0 0 Z " fill="#212255" transform="translate(418,285)"/>
<path d="M0 0 C0.66 0 1.32 0 2 0 C0.41037341 4.03520597 -1.28232318 8.01811282 -3 12 C-3.66 12 -4.32 12 -5 12 C-4.52583422 7.02125936 -3.0900669 3.93281242 0 0 Z " fill="#494A70" transform="translate(113,275)"/>
<path d="M0 0 C0.99 0.33 1.98 0.66 3 1 C0.19078484 5.6460097 -2.53096133 8.86216434 -7 12 C-7.99 11.67 -8.98 11.34 -10 11 C-9.01 10.34 -8.02 9.68 -7 9 C-3.23729409 6.33857387 -1.35769621 4.44336943 0 0 Z " fill="#FAFCEA" transform="translate(69,273)"/>
<path d="M0 0 C-0.33 0.66 -0.66 1.32 -1 2 C-3.06640625 2.6328125 -3.06640625 2.6328125 -5.5625 3.125 C-6.38878906 3.29257812 -7.21507812 3.46015625 -8.06640625 3.6328125 C-8.70449219 3.75398438 -9.34257812 3.87515625 -10 4 C-10.33 3.34 -10.66 2.68 -11 2 C-10.67 1.34 -10.34 0.68 -10 0 C-6.35526801 -0.89093449 -3.57257469 -1.23666047 0 0 Z " fill="#484A71" transform="translate(142,261)"/>
<path d="M0 0 C1.65 1.32 3.3 2.64 5 4 C1.04 4 -2.92 4 -7 4 C-7 3.01 -7 2.02 -7 1 C-5.5459375 1.0309375 -5.5459375 1.0309375 -4.0625 1.0625 C-1.12534105 1.35618499 -1.12534105 1.35618499 0 0 Z " fill="#0C0B47" transform="translate(195,315)"/>
<path d="M0 0 C0.33 0.99 0.66 1.98 1 3 C-1.52956528 6.0916909 -4.22454612 6.90931332 -8 8 C-8 7.01 -8 6.02 -8 5 C-6.25 3.61328125 -6.25 3.61328125 -4 2.3125 C-3.2575 1.87550781 -2.515 1.43851562 -1.75 0.98828125 C-1.1725 0.66214844 -0.595 0.33601563 0 0 Z " fill="#959F86" transform="translate(114,308)"/>
<path d="M0 0 C0.99 0.33 1.98 0.66 3 1 C1.515 4.96 1.515 4.96 0 9 C-0.66 9 -1.32 9 -2 9 C-2 6.36 -2 3.72 -2 1 C-1.34 0.67 -0.68 0.34 0 0 Z " fill="#484C72" transform="translate(91,333)"/>
<path d="M0 0 C-0.61277612 2.96175123 -1.25372522 4.38058783 -3 7 C-3.63292383 9.11280345 -3.63292383 9.11280345 -4 11 C-4.66 8.69 -5.32 6.38 -6 4 C-2.25 0 -2.25 0 0 0 Z " fill="#12135F" transform="translate(306,295)"/>
<path d="M0 0 C0.66 0.33 1.32 0.66 2 1 C2 3.62113708 1.68707555 5.50935112 1 8 C-0.32 8.33 -1.64 8.66 -3 9 C-2.5020163 5.26512223 -2.12508244 3.18762365 0 0 Z " fill="#1D1D5D" transform="translate(429,286)"/>
<path d="M0 0 C1.4552777 2.9105554 0.63516661 4.95849052 0.0625 8.125 C-0.13214844 9.22070312 -0.32679687 10.31640625 -0.52734375 11.4453125 C-0.68332031 12.28835938 -0.83929688 13.13140625 -1 14 C-1.33 14 -1.66 14 -2 14 C-2.33 10.04 -2.66 6.08 -3 2 C-2.01 1.34 -1.02 0.68 0 0 Z " fill="#8A9377" transform="translate(89,332)"/>
<path d="M0 0 C0.33 0 0.66 0 1 0 C1 1.65 1 3.3 1 5 C5.455 4.01 5.455 4.01 10 3 C10 3.66 10 4.32 10 5 C6.36576791 7.32590854 3.22911669 7.16265833 -1 7 C-0.67 4.69 -0.34 2.38 0 0 Z " fill="#AEB6A6" transform="translate(89,310)"/>
<path d="M0 0 C1.11375 0.185625 1.11375 0.185625 2.25 0.375 C1.6875 2.25 1.6875 2.25 0.25 4.375 C-3.375 5.625 -3.375 5.625 -6.75 6.375 C-3.42692308 0.46730769 -3.42692308 0.46730769 0 0 Z " fill="#090A59" transform="translate(396.75,280.625)"/>
<path d="M0 0 C1.65 0.99 3.3 1.98 5 3 C3.19587357 6.26460973 2.16605307 7.88929795 -1 10 C-1 9.01 -1 8.02 -1 7 C-0.34 7 0.32 7 1 7 C0.67 4.69 0.34 2.38 0 0 Z " fill="#24245C" transform="translate(459,307)"/>
<path d="M0 0 C3 0 3 0 6 1 C6.33 1.99 6.66 2.98 7 4 C4 5 4 5 1 5 C0.67 3.35 0.34 1.7 0 0 Z " fill="#54577E" transform="translate(87,281)"/>
<path d="M0 0 C1.0625 1.875 1.0625 1.875 2 4 C1.67 4.66 1.34 5.32 1 6 C1.66 6 2.32 6 3 6 C3 6.66 3 7.32 3 8 C1.35 8 -0.3 8 -2 8 C-1.125 1.125 -1.125 1.125 0 0 Z " fill="#1A1A60" transform="translate(449,312)"/>
<path d="M0 0 C3.53586014 3.17320782 5.58578031 5.16743695 6 10 C2.46413986 6.82679218 0.41421969 4.83256305 0 0 Z " fill="#43466D" transform="translate(95,288)"/>
<path d="M0 0 C1.32 0 2.64 0 4 0 C5.125 5.75 5.125 5.75 4 8 C2 6.25 2 6.25 0 4 C0 2.68 0 1.36 0 0 Z " fill="#8D93AD" transform="translate(91,285)"/>
<path d="M0 0 C0.66 0 1.32 0 2 0 C2.33 3.3 2.66 6.6 3 10 C2.34 10 1.68 10 1 10 C0.67 6.7 0.34 3.4 0 0 Z " fill="#88916D" transform="translate(82,273)"/>
<path d="M0 0 C2.125 0.9375 2.125 0.9375 4 2 C3.34 2 2.68 2 2 2 C2 4.97 2 7.94 2 11 C1.67 11 1.34 11 1 11 C1 8.69 1 6.38 1 4 C0.01 3.67 -0.98 3.34 -2 3 C-2 2.34 -2 1.68 -2 1 C-1.34 0.67 -0.68 0.34 0 0 Z " fill="#C1C8B5" transform="translate(88,321)"/>
<path d="M0 0 C0.66 0.33 1.32 0.66 2 1 C1.67 3.31 1.34 5.62 1 8 C-0.32 8.33 -1.64 8.66 -3 9 C-2.01 6.03 -1.02 3.06 0 0 Z " fill="#1F1E5A" transform="translate(149,310)"/>
<path d="M0 0 C0.99 0.99 1.98 1.98 3 3 C2.34 3 1.68 3 1 3 C0.855625 3.78375 0.71125 4.5675 0.5625 5.375 C0 8 0 8 -1 10 C-1.66 10 -2.32 10 -3 10 C-2.01 6.7 -1.02 3.4 0 0 Z " fill="#1F1F5C" transform="translate(230,279)"/>
<path d="M0 0 C1.98 0.99 1.98 0.99 4 2 C4 2.99 4 3.98 4 5 C3.01 5.495 3.01 5.495 2 6 C1.67 6.66 1.34 7.32 1 8 C0 7 0 7 -0.0625 3.4375 C-0.041875 2.303125 -0.02125 1.16875 0 0 Z " fill="#373C6E" transform="translate(76,233)"/>
<path d="M0 0 C0.66 0.33 1.32 0.66 2 1 C1.67 2.65 1.34 4.3 1 6 C-1.475 5.01 -1.475 5.01 -4 4 C-2.68 2.68 -1.36 1.36 0 0 Z " fill="#4B4D79" transform="translate(126,325)"/>
<path d="M0 0 C1.25541557 3.76624671 0.37061958 5.37188934 -1 9 C-1.99 9 -2.98 9 -4 9 C-2.94124926 5.59687262 -1.99097846 2.98646769 0 0 Z " fill="#27275E" transform="translate(296,284)"/>
<path d="M0 0 C2.64 0 5.28 0 8 0 C8 0.99 8 1.98 8 3 C5.36 3 2.72 3 0 3 C0 2.01 0 1.02 0 0 Z " fill="#0C0B44" transform="translate(169,263)"/>
<path d="M0 0 C1.32 0.99 2.64 1.98 4 3 C3.67 4.65 3.34 6.3 3 8 C2.34 8 1.68 8 1 8 C0.67 5.36 0.34 2.72 0 0 Z " fill="#8B9377" transform="translate(83,346)"/>
<path d="M0 0 C1 3 1 3 0 6 C-0.99 6 -1.98 6 -3 6 C-3.33 6.66 -3.66 7.32 -4 8 C-3.67 6.35 -3.34 4.7 -3 3 C-2.01 2.67 -1.02 2.34 0 2 C0 1.34 0 0.68 0 0 Z " fill="#797FA0" transform="translate(96,321)"/>
<path d="M0 0 C0.598125 0.20625 1.19625 0.4125 1.8125 0.625 C1.8125 1.285 1.8125 1.945 1.8125 2.625 C0 3.25 0 3.25 -2.1875 3.625 C-3.1775 2.965 -4.1675 2.305 -5.1875 1.625 C-2.1875 -0.375 -2.1875 -0.375 0 0 Z " fill="#A1A880" transform="translate(85.1875,317.375)"/>
<path d="M0 0 C1.32 0 2.64 0 4 0 C4.99 1.98 5.98 3.96 7 6 C5.68 5.67 4.36 5.34 3 5 C2.87625 4.360625 2.7525 3.72125 2.625 3.0625 C2.315625 2.0415625 2.315625 2.0415625 2 1 C1.34 0.67 0.68 0.34 0 0 Z " fill="#4A5079" transform="translate(77,238)"/>
<path d="M0 0 C0.99 0.33 1.98 0.66 3 1 C2.67 2.65 2.34 4.3 2 6 C0 5 0 5 -0.6875 3 C-0.790625 2.34 -0.89375 1.68 -1 1 C-0.67 0.67 -0.34 0.34 0 0 Z " fill="#838C61" transform="translate(48,317)"/>
<path d="M0 0 C2.31 0 4.62 0 7 0 C7 0.99 7 1.98 7 3 C4.0625 2.625 4.0625 2.625 1 2 C0.67 1.34 0.34 0.68 0 0 Z " fill="#0A0B4E" transform="translate(402,311)"/>
<path d="M0 0 C0 1.65 0 3.3 0 5 C-1.32 4.67 -2.64 4.34 -4 4 C-4 3.01 -4 2.02 -4 1 C-2 0 -2 0 0 0 Z " fill="#1F205F" transform="translate(439,279)"/>
<path d="M0 0 C6.4 -0.36923077 6.4 -0.36923077 9.4375 1.5 C9.953125 1.995 10.46875 2.49 11 3 C10.01 3.33 9.02 3.66 8 4 C7.01 3.34 6.02 2.68 5 2 C3.34450469 1.61500109 1.6777567 1.27206865 0 1 C0 0.67 0 0.34 0 0 Z " fill="#555876" transform="translate(100,229)"/>
</svg>
